<svg width="136" height="60" viewBox="0 0 136 60" fill="none" xmlns="http://www.w3.org/2000/svg">
<path d="M57.7263 60C56.7145 60 55.7714 59.8317 54.897 59.495C54.0351 59.1454 53.2856 58.6533 52.6486 58.0188C52.0115 57.3843 51.5119 56.6398 51.1496 55.7851C50.7999 54.9305 50.625 53.9917 50.625 52.9687C50.625 51.9458 50.7999 51.007 51.1496 50.1524C51.5119 49.2977 52.0115 48.5532 52.6486 47.9187C53.2981 47.2842 54.0538 46.7986 54.9157 46.4619C55.7776 46.1123 56.7207 45.9375 57.745 45.9375C58.8817 45.9375 59.906 46.1447 60.8179 46.559C61.7422 46.9605 62.5167 47.5561 63.1412 48.346L61.1926 50.2106C60.7429 49.6797 60.2433 49.2848 59.6936 49.0258C59.144 48.7539 58.5445 48.6179 57.8949 48.6179C57.2828 48.6179 56.7207 48.7215 56.2086 48.9287C55.6964 49.1359 55.253 49.4337 54.8783 49.8222C54.5035 50.2106 54.21 50.6703 53.9976 51.2012C53.7978 51.7321 53.6978 52.3213 53.6978 52.9687C53.6978 53.6162 53.7978 54.2054 53.9976 54.7363C54.21 55.2672 54.5035 55.7269 54.8783 56.1153C55.253 56.5038 55.6964 56.8016 56.2086 57.0088C56.7207 57.216 57.2828 57.3196 57.8949 57.3196C58.5445 57.3196 59.144 57.1901 59.6936 56.9311C60.2433 56.6592 60.7429 56.2513 61.1926 55.7074L63.1412 57.5721C62.5167 58.362 61.7422 58.9641 60.8179 59.3785C59.906 59.7928 58.8755 60 57.7263 60Z" fill="black"/>
<path d="M63.2294 59.7669L69.0753 46.1706H72.0732L77.9378 59.7669H74.7525L69.9559 47.7633H71.1551L66.3397 59.7669H63.2294ZM66.1523 56.8534L66.958 54.4643H73.7033L74.5277 56.8534H66.1523Z" fill="black"/>
<path d="M79.2986 59.7669V46.1706H84.9758C86.15 46.1706 87.1618 46.3713 88.0112 46.7727C88.8606 47.1612 89.5164 47.7244 89.9786 48.4625C90.4408 49.2006 90.6718 50.0811 90.6718 51.1041C90.6718 52.1141 90.4408 52.9882 89.9786 53.7263C89.5164 54.4643 88.8606 55.0341 88.0112 55.4355C87.1618 55.824 86.15 56.0182 84.9758 56.0182H80.9849L82.3339 54.6003V59.7669H79.2986ZM82.3339 54.9499L80.9849 53.4543H84.8072C85.744 53.4543 86.4436 53.2472 86.9057 52.8328C87.3679 52.4184 87.599 51.8422 87.599 51.1041C87.599 50.3531 87.3679 49.7704 86.9057 49.356C86.4436 48.9416 85.744 48.7345 84.8072 48.7345H80.9849L82.3339 47.2389V54.9499Z" fill="black"/>
<path d="M95.2081 59.7669V48.7345H91.011V46.1706H102.441V48.7345H98.2434V59.7669H95.2081Z" fill="black"/>
<path d="M101.691 59.7669L107.537 46.1706H110.535L116.4 59.7669H113.214L108.418 47.7633H109.617L104.801 59.7669H101.691ZM104.614 56.8534L105.42 54.4643H112.165L112.99 56.8534H104.614Z" fill="black"/>
<path d="M117.76 59.7669V46.1706H120.796V59.7669H117.76Z" fill="black"/>
<path d="M123.908 59.7669V46.1706H126.419L134.157 55.9599H132.94V46.1706H135.938V59.7669H133.445L125.688 49.9776H126.906V59.7669H123.908Z" fill="black"/>
<path d="M0 60V45.9375H2.98297V57.3482H9.44606V60H0Z" fill="#0696EB"/>
<path d="M9.49066 60L15.2356 45.9375H18.1818L23.9452 60H20.8149L16.1011 47.5848H17.2795L12.5473 60H9.49066ZM12.3631 56.9866L13.1549 54.5156H19.7837L20.5939 56.9866H12.3631Z" fill="#0696EB"/>
<path d="M27.6746 60L23.4579 45.9375H26.5514L30.2156 58.3929H28.6689L32.4989 45.9375H35.2609L38.9436 58.3929H37.4521L41.2084 45.9375H44.0625L39.8458 60H36.6419L33.3827 49.0714H34.2298L30.8785 60H27.6746Z" fill="#0696EB"/>
<path d="M45.9059 31.2537L44.742 28.9259L76.1679 13.407L77.3749 17.4591V18.5368L70.9087 23.7098L62.9337 27.1585L46.5525 31.9004L45.9059 31.2537Z" fill="white"/>
<path d="M70.3924 2.53851L70.1544 2.61772C69.5244 2.852 68.8606 3.21173 68.1685 3.68472C66.7847 4.63242 65.317 6.0083 63.8582 7.55297C60.931 10.6417 58.0376 14.3989 55.4732 16.8194C53.5804 18.62 51.0108 20.2305 48.6196 21.6967C46.2284 23.1629 43.9889 24.5031 42.8829 25.5509C42.3732 26.0415 42.1518 26.4455 42.0829 26.7517C42.0119 27.049 42.0515 27.2529 42.1981 27.5062C42.4913 28.0126 43.362 28.5723 44.3889 28.8439L44.7279 28.9293C58.4837 24.1329 68.9372 19.5769 76.1907 13.4904C75.8713 11.9355 75.7785 10.3524 76.221 8.90249L76.2181 8.894L76.2238 8.88267C77.395 5.45344 74.9271 2.46362 71.9189 2.30313C71.4388 2.27889 70.9272 2.35857 70.3913 2.53511L70.3924 2.53851ZM77.4901 17.6489C74.4438 21.0322 69.7154 23.7295 64.2763 25.9366C58.5624 28.2541 52.067 30.0106 45.91 31.3146L46.4666 32.4507C49.2078 31.8402 55.1738 30.6659 61.4796 28.5383C68.0319 26.3288 74.7233 23.0629 77.9003 18.7111C77.7673 18.3684 77.6315 18.0171 77.4901 17.6489ZM78.9477 20.0142C75.8531 24.0177 70.4901 26.879 64.9548 28.9955C69.8567 31.0448 74.1024 31.1511 77.4449 30.4159C81.422 29.545 84.125 27.3709 84.9413 26.0514C85.7406 24.766 85.8769 23.8994 85.7554 23.3074C85.6225 22.7098 85.2092 22.2339 84.4786 21.7975C83.1392 20.9786 80.8849 20.502 78.9477 20.0142Z" fill="#666666"/>
</svg>
